<?xml version="1.0" encoding="UTF-8"?>
<svg id="_Слой_2" data-name="Слой 2" xmlns="http://www.w3.org/2000/svg" xmlns:xlink="http://www.w3.org/1999/xlink" viewBox="0 0 429.03 106.33">
  <defs>
    <style>
      .cls-1 {
        fill: #2457c9;
      }

      .cls-2 {
        fill: #0d70ff;
      }

      .cls-3 {
        fill: url(#_Безымянный_градиент_322);
      }

      .cls-4 {
        fill: #1fea84;
      }

      .cls-5 {
        fill: #4a5aa7;
      }

      .cls-6 {
        fill: #1d1c1a;
      }
    </style>
    <linearGradient id="_Безымянный_градиент_322" data-name="Безымянный градиент 322" x1="75.31" y1="69.44" x2="11.04" y2="34.3" gradientUnits="userSpaceOnUse">
      <stop offset="0" stop-color="#2556ff"/>
      <stop offset="1" stop-color="#1bd6f9"/>
    </linearGradient>
  </defs>
  <g id="_Слой_1-2" data-name="Слой 1">
    <g>
      <g>
        <path class="cls-6" d="m130.02,49.54v9.18h16.07v6.45h-16.07v12.65h-8.03v-34.72h26.23v6.45h-18.2Z"/>
        <path class="cls-6" d="m152.76,52.58c-.71-.66-1.07-1.48-1.07-2.46s.36-1.8,1.07-2.46c.71-.66,1.64-.99,2.78-.99s2.06.32,2.78.95c.71.63,1.07,1.43,1.07,2.38,0,1.03-.36,1.88-1.07,2.56s-1.64,1.01-2.78,1.01-2.06-.33-2.78-.99Zm-.32,3.97h6.19v21.34h-6.19v-21.34Z"/>
        <path class="cls-6" d="m183.76,58.61c1.63,1.59,2.44,3.94,2.44,7.06v12.22h-6.19v-11.26c0-1.69-.37-2.96-1.11-3.79-.74-.83-1.81-1.25-3.21-1.25-1.56,0-2.8.48-3.73,1.45-.93.97-1.39,2.4-1.39,4.3v10.55h-6.19v-21.34h5.91v2.5c.82-.9,1.84-1.59,3.05-2.08,1.22-.49,2.55-.73,4.01-.73,2.64,0,4.78.79,6.41,2.38Z"/>
        <path class="cls-6" d="m198.05,77.28c-2.56-.74-4.62-1.71-6.17-2.9l2.73-6.05c1.49,1.09,3.26,1.97,5.31,2.63,2.05.66,4.1.99,6.15.99,2.28,0,3.97-.34,5.06-1.02,1.09-.68,1.64-1.58,1.64-2.7,0-.83-.32-1.51-.97-2.06-.64-.55-1.47-.98-2.48-1.31-1.01-.33-2.37-.69-4.09-1.09-2.65-.63-4.81-1.26-6.5-1.88-1.69-.63-3.13-1.64-4.34-3.03-1.21-1.39-1.81-3.24-1.81-5.55,0-2.02.54-3.84,1.64-5.48,1.09-1.64,2.74-2.93,4.94-3.89,2.2-.96,4.88-1.44,8.06-1.44,2.21,0,4.38.27,6.5.79,2.11.53,3.97,1.29,5.55,2.28l-2.48,6.1c-3.21-1.82-6.41-2.73-9.62-2.73-2.25,0-3.91.36-4.98,1.09-1.07.73-1.61,1.69-1.61,2.88s.62,2.08,1.86,2.65c1.24.58,3.13,1.15,5.68,1.71,2.64.63,4.81,1.26,6.5,1.88,1.69.63,3.13,1.62,4.34,2.98,1.21,1.36,1.81,3.19,1.81,5.5,0,1.98-.55,3.79-1.66,5.43-1.11,1.64-2.77,2.93-4.98,3.89-2.22.96-4.91,1.44-8.08,1.44-2.74,0-5.4-.37-7.96-1.12Z"/>
        <path class="cls-6" d="m247.29,56.55v21.34h-5.87v-2.54c-.82.93-1.8,1.63-2.93,2.12-1.14.49-2.37.73-3.69.73-2.8,0-5.02-.81-6.66-2.42-1.64-1.61-2.46-4.01-2.46-7.18v-12.06h6.19v11.14c0,3.44,1.44,5.16,4.32,5.16,1.48,0,2.67-.48,3.57-1.45.9-.97,1.35-2.4,1.35-4.3v-10.55h6.19Z"/>
        <path class="cls-6" d="m286.73,58.59c1.57,1.57,2.36,3.93,2.36,7.08v12.22h-6.19v-11.26c0-1.69-.35-2.96-1.05-3.79-.7-.83-1.7-1.25-2.99-1.25-1.45,0-2.61.47-3.45,1.41-.85.94-1.27,2.33-1.27,4.18v10.71h-6.19v-11.26c0-3.36-1.35-5.04-4.05-5.04-1.43,0-2.57.47-3.41,1.41-.85.94-1.27,2.33-1.27,4.18v10.71h-6.19v-21.34h5.91v2.46c.79-.9,1.76-1.59,2.92-2.06,1.15-.48,2.41-.71,3.79-.71,1.51,0,2.87.3,4.09.89,1.22.59,2.19,1.46,2.93,2.6.87-1.11,1.98-1.97,3.31-2.58s2.8-.91,4.38-.91c2.67,0,4.79.79,6.37,2.36Z"/>
      </g>
      <g>
        <path class="cls-2" d="m327,42.69v35.12h-4.11l-21.07-26.19v26.19h-5.02v-35.12h4.11l21.07,26.19v-26.19h5.02Z"/>
        <path class="cls-2" d="m350.28,58.66c1.55,1.43,2.33,3.57,2.33,6.41v12.74h-3.62v-2.79c-.64.98-1.55,1.73-2.73,2.25-1.18.52-2.58.78-4.2.78-2.36,0-4.25-.57-5.67-1.71-1.42-1.14-2.13-2.64-2.13-4.5s.68-3.35,2.03-4.48,3.5-1.69,6.45-1.69h6.05v-.76c0-1.64-.48-2.91-1.43-3.78-.96-.88-2.36-1.31-4.22-1.31-1.25,0-2.47.2-3.66.62-1.19.41-2.2.96-3.03,1.65l-1.59-2.87c1.09-.88,2.39-1.54,3.9-2.01,1.51-.46,3.12-.7,4.82-.7,2.92,0,5.16.72,6.71,2.15Zm-3.8,15.46c1.06-.65,1.83-1.57,2.31-2.77v-2.95h-5.89c-3.24,0-4.86,1.09-4.86,3.26,0,1.06.41,1.9,1.23,2.51.82.61,1.96.92,3.42.92s2.72-.32,3.78-.98Z"/>
        <path class="cls-2" d="m360.77,77.35c-1.59-.46-2.84-1.05-3.74-1.77l1.59-3.03c.93.66,2.06,1.19,3.38,1.59,1.33.4,2.67.6,4.02.6,3.34,0,5.02-.96,5.02-2.87,0-.64-.23-1.14-.68-1.51-.45-.37-1.02-.64-1.69-.81s-1.64-.37-2.89-.58c-1.7-.26-3.09-.57-4.16-.92-1.07-.34-2-.93-2.77-1.75-.77-.82-1.15-1.98-1.15-3.46,0-1.91.8-3.44,2.39-4.6,1.59-1.15,3.73-1.73,6.41-1.73,1.41,0,2.81.17,4.22.52,1.41.35,2.56.81,3.46,1.39l-1.63,3.03c-1.73-1.11-3.76-1.67-6.09-1.67-1.62,0-2.85.27-3.7.8-.85.53-1.27,1.23-1.27,2.11,0,.69.24,1.24.72,1.63.48.4,1.07.69,1.77.88.7.19,1.69.4,2.97.64,1.7.29,3.07.6,4.12.93,1.05.33,1.94.9,2.69,1.69.74.8,1.11,1.91,1.11,3.34,0,1.91-.82,3.43-2.45,4.56-1.63,1.13-3.85,1.69-6.67,1.69-1.73,0-3.38-.23-4.98-.7Z"/>
        <path class="cls-2" d="m379.69,51.93c-.49-.48-.74-1.06-.74-1.75s.25-1.28.74-1.77c.49-.49,1.11-.74,1.85-.74s1.36.23,1.85.7c.49.46.74,1.04.74,1.73s-.25,1.32-.74,1.81c-.49.49-1.11.74-1.85.74s-1.36-.24-1.85-.72Zm-.06,4.78h3.82v21.1h-3.82v-21.1Z"/>
        <path class="cls-2" d="m409.41,56.71l-10.23,23.21c-.9,2.15-1.96,3.66-3.16,4.54-1.21.88-2.66,1.31-4.36,1.31-1.03,0-2.04-.17-3.01-.5-.97-.33-1.77-.82-2.41-1.45l1.63-2.87c1.09,1.03,2.35,1.55,3.78,1.55.93,0,1.7-.25,2.33-.74.62-.49,1.19-1.33,1.69-2.53l.68-1.47-9.31-21.06h3.98l7.36,16.88,7.28-16.88h3.74Z"/>
        <path class="cls-2" d="m426.71,58.66c1.55,1.43,2.33,3.57,2.33,6.41v12.74h-3.62v-2.79c-.64.98-1.55,1.73-2.73,2.25-1.18.52-2.58.78-4.2.78-2.36,0-4.25-.57-5.67-1.71-1.42-1.14-2.13-2.64-2.13-4.5s.68-3.35,2.03-4.48,3.5-1.69,6.45-1.69h6.05v-.76c0-1.64-.48-2.91-1.43-3.78-.96-.88-2.36-1.31-4.22-1.31-1.25,0-2.47.2-3.66.62-1.19.41-2.2.96-3.03,1.65l-1.59-2.87c1.09-.88,2.39-1.54,3.9-2.01,1.51-.46,3.12-.7,4.82-.7,2.92,0,5.16.72,6.71,2.15Zm-3.8,15.46c1.06-.65,1.83-1.57,2.31-2.77v-2.95h-5.89c-3.24,0-4.86,1.09-4.86,3.26,0,1.06.41,1.9,1.23,2.51.82.61,1.96.92,3.42.92s2.72-.32,3.78-.98Z"/>
      </g>
    </g>
    <g>
      <g>
        <path class="cls-1" d="m90.6,8.94c-.71,1.9-1.73,3.67-2.99,5.24-.71.89-1.5,1.72-2.36,2.49-.07.06-.15.13-.23.19-.04,0-.07.01-.11.01-.57.05-1.15.11-1.75.14-3.13.24-6.33.15-9.53-.25l-17.56-2.17c-.72-.09-1.47-.15-2.29-.21-5.11-.29-10.32.68-15.06,2.79-1.82.81-3.55,1.79-5.16,2.9-2.25,1.53-4.31,3.35-6.11,5.41-.25.28-.49.55-.71.84l-.58.76c-.05,0-.09.01-.14.01-1.26.06-2.5.19-3.73.41.08-.14.15-.28.24-.41,1.3-2.28,2.91-4.4,4.74-6.27,1.33-1.38,2.78-2.62,4.34-3.73,3.95-2.81,8.62-4.76,13.7-5.49.72-.1,1.46-.18,2.2-.25l17.65-1.31c10.03-.74,19.13-4.39,26.57-10.08.01.1.02.21.04.31l.03.35c.22,2.9-.23,5.72-1.2,8.28Z"/>
        <path class="cls-1" d="m91.19,12c-.34,1.4-.77,2.75-1.28,4.07-.26.06-.52.11-.78.16-.7.13-1.36.26-2.03.36.22-.17.44-.37.65-.55,1.33-1.17,2.49-2.53,3.45-4.04Z"/>
      </g>
      <path class="cls-5" d="m101.52,13.29c-.01.1-.02.21-.02.31l-.04.34c-.36,2.89-1.34,5.56-2.8,7.89-1.07,1.72-2.42,3.26-3.95,4.56-.88.74-1.82,1.4-2.81,1.98-2.39,1.39-5.1,2.26-7.95,2.5,2.74.11,5.39-.37,7.81-1.31.93-.37,1.85-.82,2.71-1.32,1.53-.89,2.95-2,4.17-3.28-1.54,3.31-3.62,6.28-6.13,8.83-.46.48-.94.93-1.45,1.39-2.43,2.17-5.18,3.95-8.17,5.3-5.07,2.27-10.81,3.22-16.72,2.48-.36-.04-.73-.09-1.08-.15.01.01.03.03.05.03l-9.8-1.21-4.67-4.67-.71-.71c-1.05-1.05-2.18-2.01-3.37-2.89-5.29-3.93-11.82-6.26-18.91-6.26.21-.27.43-.52.66-.78,1.73-1.98,3.71-3.74,5.89-5.21,1.57-1.09,3.23-2.02,4.98-2.8,4.43-1.98,9.39-2.98,14.51-2.69.73.04,1.47.1,2.21.19l17.56,2.17c3.3.41,6.57.49,9.76.26.61-.03,1.2-.09,1.8-.15,1.46-.15,2.89-.38,4.31-.66,4.26-.84,8.34-2.24,12.17-4.1Z"/>
      <path class="cls-4" d="m47.13,74.54v31.79h0c-14.3-.05-25.86-11.66-25.86-25.96v-30.26c2.11,1.29,4.06,2.83,5.8,4.57l.07.07,9.94,9.94,8.62,8.62c.33.31.67.61,1.02.89l.4.33s0,0,0,.01Z"/>
      <path class="cls-3" d="m75.68,66.38c0,.08,0,.16,0,.23-.04.9-.33,1.75-.8,2.46t0,0c-.19.25-.38.49-.59.72,0,.01-.02.02-.03.03-3.58,4.18-8.89,6.82-14.82,6.82-1.57,0-3.1-.19-4.57-.54-.06-.01-.12-.03-.17-.04-2.81-.7-5.38-2.01-7.56-3.79-.35-.28-.69-.58-1.02-.89l-.94-.94-7.68-7.68-9.94-9.94-.07-.07c-1.8-1.8-3.82-3.38-6.01-4.7-.07-.04-.14-.08-.21-.12-4.74-2.82-10.28-4.44-16.19-4.44-1.73,0-3.42.14-5.07.4,4.03-6.52,10.37-11.48,17.87-13.72,1.1-.33,2.24-.61,3.39-.82,1.33-.24,2.69-.4,4.07-.47.55-.03,1.11-.05,1.67-.05,7.08,0,13.63,2.32,18.91,6.25,1.19.88,2.32,1.85,3.37,2.89l25.3,25.29c.69.84,1.1,1.92,1.1,3.09Z"/>
      <path class="cls-2" d="m101.52,13.29c-.01.1-.02.21-.02.31l-.04.34c-.36,2.89-1.34,5.56-2.8,7.89-1.07,1.72-2.42,3.26-3.95,4.56-.88.74-1.82,1.4-2.81,1.98-2.39,1.39-5.1,2.26-7.95,2.5,2.74.11,5.39-.37,7.81-1.31.93-.37,1.85-.82,2.71-1.32,1.53-.89,2.95-2,4.17-3.28-1.54,3.31-3.62,6.28-6.13,8.83-.46.48-.94.93-1.45,1.39-2.43,2.17-5.18,3.95-8.17,5.3-5.07,2.27-10.81,3.22-16.72,2.48-.36-.04-.73-.09-1.08-.15.01.01.03.03.05.03l-9.8-1.21-4.67-4.67-.71-.71c-1.05-1.05-2.18-2.01-3.37-2.89-5.29-3.93-11.82-6.26-18.91-6.26.21-.27.43-.52.66-.78,1.73-1.98,3.71-3.74,5.89-5.21,1.57-1.09,3.23-2.02,4.98-2.8,4.43-1.98,9.39-2.98,14.51-2.69.73.04,1.47.1,2.21.19l17.56,2.17c3.3.41,6.57.49,9.76.26.61-.03,1.2-.09,1.8-.15,1.46-.15,2.89-.38,4.31-.66,4.26-.84,8.34-2.24,12.17-4.1Z"/>
    </g>
  </g>
</svg>